:SAMPLES-PER-SECOND 30
:FULLY-SPECIFIED
:DEGREES
504
root  -52.4153 39.1604 -31.9646 4.74542 -16.6392 -1.57414
RightUpLeg  -32.3406 -9.10386 -7.73443
RightLeg  41.5698 -9.91728 -9.67499
RightFoot  2.23083 -0.518334 4.51477
RightToes  0.00048216 0.542163 -0.142577
Spine  43.4601 -1.75582 12.3799
Spine1  13.9616 6.18161 -7.3333
HEad  -14.4713 -14.2217 -1.39035
LeftShoulder1  9.67949 -16.4745 -42.0574
LeftArm  -9.80427 12.1982 -30.3423
LeftForeArm  47.4378 -63.2636 -17.6314
LeftHand  -0.25398 0.0180481 5.50724
RightShoulder  3.24179 9.13728 19.1874
RightArm  -22.3994 61.7145 21.2183
RightForeArm  -3.54001 22.5075 5.09337
RightHand  -4.41349 15.1988 -24.9715
LeftUpLeg  -24.6823 10.2115 -10.7051
LeftLeg  11.5444 9.60271 -3.83553
LeftFoot  5.73027 -2.96218 19.3057
LeftToes  1.06246e-005 4.65856e-005 -8.18502e-006
505
root  -53.1885 39.2943 -31.802 6.25377 -13.8513 -1.02299
RightUpLeg  -30.7183 -8.07809 -9.26861
RightLeg  27.852 -9.0737 -5.54229
RightFoot  1.8603 -0.788123 6.87543
RightToes  0.00048216 0.542163 -0.142577
Spine  44.4942 -2.52565 13.0272
Spine1  13.8457 5.98964 -7.57329
HEad  -15.9292 -14.7813 -1.51145
LeftShoulder1  9.78389 -16.6895 -42.0575
LeftArm  -9.1813 11.8985 -30.1148
LeftForeArm  48.9946 -65.2404 -19.3756
LeftHand  -0.25398 0.0180481 5.50724
RightShoulder  3.02266 8.90118 17.8066
RightArm  -26.8682 63.6907 18.4265
RightForeArm  -3.39042 21.64 5.04954
RightHand  -4.65843 15.9228 -25.4376
LeftUpLeg  -25.4562 6.59774 -9.6634
LeftLeg  11.1486 10.3067 -4.21613
LeftFoot  6.12997 -2.92115 18.5908
LeftToes  1.06246e-005 4.65856e-005 -8.18502e-006
506
root  -54.008 39.387 -31.6205 7.62642 -10.7565 0.0623169
RightUpLeg  -29.1272 -7.45264 -10.8223
RightLeg  16.4523 -1.66883 -0.885706
RightFoot  3.447 -1.27075 9.94162
RightToes  0.00048216 0.542163 -0.142577
Spine  45.0956 -3.18399 13.3466
Spine1  13.6817 5.57706 -7.53442
HEad  -16.8033 -15.6534 -1.69582
LeftShoulder1  9.80289 -16.8434 -41.8012
LeftArm  -8.89018 11.6372 -30.3231
LeftForeArm  49.8407 -65.7118 -19.7933
LeftHand  -0.25398 0.0180481 5.50724
RightShoulder  2.83235 8.61247 16.7334
RightArm  -31.8314 65.0993 15.092
RightForeArm  -3.17352 21.0536 5.01283
RightHand  -4.79937 16.3905 -25.6341
LeftUpLeg  -26.3231 4.24777 -9.59098
LeftLeg  10.9527 9.38176 -4.50725
LeftFoot  6.51961 -2.76454 17.2032
LeftToes  1.06246e-005 4.65856e-005 -8.18502e-006
507
root  -54.8364 39.5563 -31.4796 9.01547 -8.21588 0.845825
RightUpLeg  -28.625 -7.08297 -10.6953
RightLeg  10.3747 5.76862 0.358526
RightFoot  6.55664 -1.45884 9.58608
RightToes  0.00048216 0.542163 -0.142577
Spine  45.739 -3.47627 13.9344
Spine1  13.4495 5.37834 -7.21304
HEad  -17.9051 -16.8938 -1.02922
LeftShoulder1  9.78095 -16.9463 -41.4734
LeftArm  -8.64219 11.3699 -30.4387
LeftForeArm  49.9869 -65.2644 -19.2988
LeftHand  -0.25398 0.0180481 5.50724
RightShoulder  2.69373 8.34121 16.0414
RightArm  -36.7324 65.8856 11.9345
RightForeArm  -3.03673 20.9702 4.96269
RightHand  -4.94895 16.8788 -25.8409
LeftUpLeg  -26.715 3.59638 -9.56103
LeftLeg  9.75301 7.29724 -4.9799
LeftFoot  7.37731 -2.70377 16.018
LeftToes  1.06246e-005 4.65856e-005 -8.18502e-006
508
root  -55.6474 39.7658 -31.3624 10.4383 -6.38873 1.12
RightUpLeg  -29.0142 -7.46043 -9.45729
RightLeg  8.78694 7.60323 0.551365
RightFoot  9.10128 -1.14396 6.67494
RightToes  0.00048216 0.542163 -0.142577
Spine  46.3629 -3.51195 14.7369
Spine1  13.1917 5.54674 -7.0653
HEad  -19.9035 -18.471 0.811648
LeftShoulder1  9.86627 -17.084 -41.5605
LeftArm  -8.35757 11.1015 -29.9602
LeftForeArm  49.3943 -64.2857 -18.3825
LeftHand  -0.25398 0.0180481 5.50724
RightShoulder  2.57099 8.09523 15.4117
RightArm  -41.0529 66.1952 9.46894
RightForeArm  -2.46578 21.511 4.91166
RightHand  -5.57708 18.2892 -27.2693
LeftUpLeg  -27.0639 3.08488 -8.90541
LeftLeg  8.2787 5.74878 -5.20256
LeftFoot  8.3276 -2.6936 15.1485
LeftToes  1.06246e-005 4.65856e-005 -8.18502e-006
509
root  -56.405 39.9453 -31.2224 11.6976 -5.07986 1.17824
RightUpLeg  -29.2912 -8.44611 -8.72314
RightLeg  8.38465 5.60969 1.57735
RightFoot  10.2846 -0.831961 4.71349
RightToes  0.00048216 0.542163 -0.142577
Spine  46.9195 -3.58908 15.4536
Spine1  13.0709 5.90299 -7.35567
HEad  -22.2216 -19.5866 2.77623
LeftShoulder1  10.0071 -17.2473 -41.8418
LeftArm  -8.38362 11.1192 -29.3609
LeftForeArm  48.3004 -62.9371 -17.2671
LeftHand  -0.25398 0.0180481 5.50724
RightShoulder  2.46296 7.87859 14.8356
RightArm  -44.6454 66.3074 7.79987
RightForeArm  -1.01795 22.8445 4.97268
RightHand  -6.72881 20.5001 -29.9189
LeftUpLeg  -27.5565 1.5721 -7.51197
LeftLeg  7.28394 5.80384 -5.13975
LeftFoot  8.92427 -2.55987 13.9439
LeftToes  1.06246e-005 4.65856e-005 -8.18502e-006
510
root  -57.1081 40.0977 -31.0607 12.5917 -3.92938 1.36757
RightUpLeg  -29.3281 -9.86397 -8.45975
RightLeg  7.91481 4.58002 3.0202
RightFoot  10.5123 -0.704855 4.024
RightToes  0.00048216 0.542163 -0.142577
Spine  47.4776 -3.83125 15.7378
Spine1  13.1558 6.11006 -7.78254
HEad  -23.5084 -19.4861 3.38773
LeftShoulder1  10.0438 -17.3101 -41.8697
LeftArm  -8.72233 11.6385 -29.0987
LeftForeArm  47.1622 -61.4102 -16.1289
LeftHand  -0.25398 0.0180481 5.50724
RightShoulder  2.42457 7.75931 14.7129
RightArm  -47.3895 66.4747 7.08869
RightForeArm  0.604668 25.0583 5.33454
RightHand  -7.63934 21.9698 -31.9989
LeftUpLeg  -27.6772 -0.266697 -6.07932
LeftLeg  6.23772 6.43542 -5.02115
LeftFoot  9.40572 -2.32833 12.3523
LeftToes  1.06246e-005 4.65856e-005 -8.18502e-006
